<svg width="81" height="74" viewBox="0 0 81 74" fill="none" xmlns="http://www.w3.org/2000/svg">
<g filter="url(#filter0_d_10423_141473)">
<rect x="13" y="7.91211" width="55" height="49" rx="9.73913" fill="white" shape-rendering="crispEdges"/>
<path d="M45.7083 24.0794C45.4321 24.0794 45.1671 23.9697 44.9718 23.7743C44.7764 23.579 44.6667 23.314 44.6667 23.0378C44.6667 22.7615 44.7764 22.4965 44.9718 22.3012C45.1671 22.1058 45.4321 21.9961 45.7083 21.9961H49.875C50.1513 21.9961 50.4162 22.1058 50.6116 22.3012C50.8069 22.4965 50.9167 22.7615 50.9167 23.0378V27.2044C50.9167 27.4807 50.8069 27.7456 50.6116 27.941C50.4162 28.1363 50.1513 28.2461 49.875 28.2461C49.5987 28.2461 49.3338 28.1363 49.1384 27.941C48.9431 27.7456 48.8333 27.4807 48.8333 27.2044V25.5523L42.799 31.5867C42.6036 31.782 42.3387 31.8917 42.0625 31.8917C41.7863 31.8917 41.5214 31.782 41.326 31.5867L38.4167 28.6773L32.9031 34.1909C32.7067 34.3806 32.4435 34.4856 32.1704 34.4833C31.8973 34.4809 31.636 34.3713 31.4429 34.1782C31.2498 33.9851 31.1402 33.7238 31.1378 33.4507C31.1355 33.1776 31.2405 32.9144 31.4302 32.718L37.6802 26.468C37.8755 26.2727 38.1405 26.163 38.4167 26.163C38.6929 26.163 38.9578 26.2727 39.1531 26.468L42.0625 29.3773L47.3604 24.0794H45.7083ZM33.2083 38.6628V41.7878C33.2083 42.064 33.0986 42.329 32.9032 42.5243C32.7079 42.7197 32.4429 42.8294 32.1667 42.8294C31.8904 42.8294 31.6254 42.7197 31.4301 42.5243C31.2347 42.329 31.125 42.064 31.125 41.7878V38.6628C31.125 38.3865 31.2347 38.1215 31.4301 37.9262C31.6254 37.7308 31.8904 37.6211 32.1667 37.6211C32.4429 37.6211 32.7079 37.7308 32.9032 37.9262C33.0986 38.1215 33.2083 38.3865 33.2083 38.6628ZM38.4167 34.4961C38.4167 34.2198 38.3069 33.9549 38.1116 33.7595C37.9162 33.5642 37.6513 33.4544 37.375 33.4544C37.0987 33.4544 36.8338 33.5642 36.6384 33.7595C36.4431 33.9549 36.3333 34.2198 36.3333 34.4961V41.7878C36.3333 42.064 36.4431 42.329 36.6384 42.5243C36.8338 42.7197 37.0987 42.8294 37.375 42.8294C37.6513 42.8294 37.9162 42.7197 38.1116 42.5243C38.3069 42.329 38.4167 42.064 38.4167 41.7878V34.4961ZM42.5833 35.5378C42.8596 35.5378 43.1246 35.6475 43.3199 35.8429C43.5153 36.0382 43.625 36.3032 43.625 36.5794V41.7878C43.625 42.064 43.5153 42.329 43.3199 42.5243C43.1246 42.7197 42.8596 42.8294 42.5833 42.8294C42.3071 42.8294 42.0421 42.7197 41.8468 42.5243C41.6514 42.329 41.5417 42.064 41.5417 41.7878V36.5794C41.5417 36.3032 41.6514 36.0382 41.8468 35.8429C42.0421 35.6475 42.3071 35.5378 42.5833 35.5378ZM48.8333 31.3711C48.8333 31.0948 48.7236 30.8299 48.5282 30.6345C48.3329 30.4392 48.0679 30.3294 47.7917 30.3294C47.5154 30.3294 47.2504 30.4392 47.0551 30.6345C46.8597 30.8299 46.75 31.0948 46.75 31.3711V41.7878C46.75 42.064 46.8597 42.329 47.0551 42.5243C47.2504 42.7197 47.5154 42.8294 47.7917 42.8294C48.0679 42.8294 48.3329 42.7197 48.5282 42.5243C48.7236 42.329 48.8333 42.064 48.8333 41.7878V31.3711Z" fill="#3F0371"/>
</g>
<defs>
<filter id="filter0_d_10423_141473" x="0.826086" y="0.607761" width="79.3478" height="73.3478" filterUnits="userSpaceOnUse" color-interpolation-filters="sRGB">
<feFlood flood-opacity="0" result="BackgroundImageFix"/>
<feColorMatrix in="SourceAlpha" type="matrix" values="0 0 0 0 0 0 0 0 0 0 0 0 0 0 0 0 0 0 127 0" result="hardAlpha"/>
<feOffset dy="4.86957"/>
<feGaussianBlur stdDeviation="6.08696"/>
<feComposite in2="hardAlpha" operator="out"/>
<feColorMatrix type="matrix" values="0 0 0 0 0.533333 0 0 0 0 0.027451 0 0 0 0 0.968627 0 0 0 0.07 0"/>
<feBlend mode="normal" in2="BackgroundImageFix" result="effect1_dropShadow_10423_141473"/>
<feBlend mode="normal" in="SourceGraphic" in2="effect1_dropShadow_10423_141473" result="shape"/>
</filter>
</defs>
</svg>
