<svg width="82" height="75" viewBox="0 0 82 75" fill="none" xmlns="http://www.w3.org/2000/svg">
<g filter="url(#filter0_d_10423_141464)">
<rect x="13" y="8" width="56" height="49.913" rx="9.73913" fill="white"/>
</g>
<path d="M41.5 41.875C40.3889 41.875 39.3385 41.6927 38.349 41.3281C37.3594 40.9635 36.4653 40.4601 35.6667 39.8177L34.3385 41.1458C34.1302 41.3542 33.8872 41.4538 33.6094 41.4448C33.3316 41.4365 33.0885 41.3281 32.8802 41.1198C32.6719 40.9115 32.5677 40.6639 32.5677 40.3771C32.5677 40.091 32.6719 39.8438 32.8802 39.6354L34.1823 38.3333C33.5399 37.5347 33.0365 36.6361 32.6719 35.6375C32.3073 34.6396 32.125 33.5938 32.125 32.5C32.125 29.8958 33.041 27.6823 34.8729 25.8594C36.7042 24.0365 38.9132 23.125 41.5 23.125H48.7917C49.3646 23.125 49.8552 23.3288 50.2635 23.7365C50.6712 24.1448 50.875 24.6354 50.875 25.2083V32.5C50.875 35.0868 49.9635 37.2962 48.1406 39.1281C46.3177 40.9594 44.1042 41.875 41.5 41.875ZM41.5 39.7917C43.5313 39.7917 45.2542 39.0799 46.6688 37.6563C48.084 36.2326 48.7917 34.5139 48.7917 32.5V25.2083H41.5C39.4861 25.2083 37.7674 25.9156 36.3438 27.3302C34.9201 28.7455 34.2083 30.4688 34.2083 32.5C34.2083 34.5139 34.9201 36.2326 36.3438 37.6563C37.7674 39.0799 39.4861 39.7917 41.5 39.7917ZM40.1198 37.5781L45.5104 32.7604C45.684 32.6042 45.7361 32.4174 45.6667 32.2C45.5972 31.9833 45.441 31.8576 45.1979 31.8229L40.9792 31.4062L43.5052 27.9427C43.5747 27.8559 43.6049 27.7646 43.5958 27.6688C43.5875 27.5736 43.5486 27.4826 43.4792 27.3958C43.3924 27.309 43.2927 27.2656 43.1802 27.2656C43.067 27.2656 42.967 27.309 42.8802 27.3958L37.5156 32.2135C37.342 32.3698 37.2899 32.5563 37.3594 32.7729C37.4288 32.9903 37.5851 33.1163 37.8281 33.151L42.0469 33.5677L39.4948 37.0313C39.4427 37.1181 39.4167 37.2094 39.4167 37.3052C39.4167 37.4003 39.4601 37.4913 39.5469 37.5781C39.6337 37.6649 39.7292 37.7083 39.8333 37.7083C39.9375 37.7083 40.033 37.6649 40.1198 37.5781Z" fill="#3D0072"/>
<defs>
<filter id="filter0_d_10423_141464" x="0.826086" y="0.695652" width="80.3478" height="74.2599" filterUnits="userSpaceOnUse" color-interpolation-filters="sRGB">
<feFlood flood-opacity="0" result="BackgroundImageFix"/>
<feColorMatrix in="SourceAlpha" type="matrix" values="0 0 0 0 0 0 0 0 0 0 0 0 0 0 0 0 0 0 127 0" result="hardAlpha"/>
<feOffset dy="4.86957"/>
<feGaussianBlur stdDeviation="6.08696"/>
<feComposite in2="hardAlpha" operator="out"/>
<feColorMatrix type="matrix" values="0 0 0 0 0.533333 0 0 0 0 0.027451 0 0 0 0 0.968627 0 0 0 0.07 0"/>
<feBlend mode="normal" in2="BackgroundImageFix" result="effect1_dropShadow_10423_141464"/>
<feBlend mode="normal" in="SourceGraphic" in2="effect1_dropShadow_10423_141464" result="shape"/>
</filter>
</defs>
</svg>
