<svg width="81" height="74" viewBox="0 0 81 74" fill="none" xmlns="http://www.w3.org/2000/svg">
<g filter="url(#filter0_d_10423_141503)">
<rect x="13" y="7.91211" width="55.3871" height="49" rx="9.73913" fill="white" shape-rendering="crispEdges"/>
<path d="M40.6039 20.6344C40.7648 20.4358 40.964 20.2706 41.1901 20.1485C41.4161 20.0264 41.6645 19.9497 41.9208 19.9228C42.1771 19.896 42.4362 19.9196 42.6832 19.9922C42.9302 20.0649 43.1601 20.1851 43.3597 20.346L49.7171 25.4676C50.0667 25.7492 50.3064 26.1418 50.3952 26.5783C50.4841 27.0149 50.4166 27.4683 50.2043 27.8612C49.6485 27.6936 49.0704 27.6087 48.4892 27.6093H47.9046L48.4853 26.9557L45.1371 24.2584L42.3755 27.6113H39.8633L43.6267 23.0433L42.126 21.8341L37.4525 27.6093H34.9579L40.6039 20.6344ZM45.5659 37.222C45.3074 37.222 45.0596 37.3233 44.8768 37.5035C44.6941 37.6838 44.5914 37.9283 44.5914 38.1833C44.5914 38.4382 44.6941 38.6827 44.8768 38.863C45.0596 39.0432 45.3074 39.1445 45.5659 39.1445H47.5148C47.7732 39.1445 48.0211 39.0432 48.2038 38.863C48.3866 38.6827 48.4892 38.4382 48.4892 38.1833C48.4892 37.9283 48.3866 37.6838 48.2038 37.5035C48.0211 37.3233 47.7732 37.222 47.5148 37.222H45.5659ZM30.9489 28.5706C30.9489 28.3157 31.0516 28.0712 31.2343 27.8909C31.4171 27.7106 31.6649 27.6093 31.9234 27.6093H33.0109L34.5603 25.6868H31.9234C31.1481 25.6868 30.4045 25.9906 29.8562 26.5315C29.308 27.0723 29 27.8058 29 28.5706V40.1058C29 41.3805 29.5133 42.603 30.4271 43.5044C31.3408 44.4057 32.5801 44.9121 33.8723 44.9121H48.4892C49.523 44.9121 50.5145 44.507 51.2454 43.7859C51.9764 43.0648 52.3871 42.0868 52.3871 41.067V33.3769C52.3871 32.3572 51.9764 31.3791 51.2454 30.6581C50.5145 29.937 49.523 29.5319 48.4892 29.5319H31.9234C31.6649 29.5319 31.4171 29.4306 31.2343 29.2503C31.0516 29.07 30.9489 28.8255 30.9489 28.5706ZM30.9489 40.1058V31.291C31.253 31.3967 31.5823 31.4544 31.9234 31.4544H48.4892C49.0061 31.4544 49.5019 31.657 49.8673 32.0175C50.2328 32.378 50.4382 32.867 50.4382 33.3769V41.067C50.4382 41.5769 50.2328 42.0659 49.8673 42.4265C49.5019 42.787 49.0061 42.9896 48.4892 42.9896H33.8723C33.097 42.9896 32.3534 42.6858 31.8052 42.1449C31.2569 41.6041 30.9489 40.8706 30.9489 40.1058Z" fill="#3D0072"/>
</g>
<defs>
<filter id="filter0_d_10423_141503" x="0.826086" y="0.607761" width="79.7345" height="73.3478" filterUnits="userSpaceOnUse" color-interpolation-filters="sRGB">
<feFlood flood-opacity="0" result="BackgroundImageFix"/>
<feColorMatrix in="SourceAlpha" type="matrix" values="0 0 0 0 0 0 0 0 0 0 0 0 0 0 0 0 0 0 127 0" result="hardAlpha"/>
<feOffset dy="4.86957"/>
<feGaussianBlur stdDeviation="6.08696"/>
<feComposite in2="hardAlpha" operator="out"/>
<feColorMatrix type="matrix" values="0 0 0 0 0.533333 0 0 0 0 0.027451 0 0 0 0 0.968627 0 0 0 0.07 0"/>
<feBlend mode="normal" in2="BackgroundImageFix" result="effect1_dropShadow_10423_141503"/>
<feBlend mode="normal" in="SourceGraphic" in2="effect1_dropShadow_10423_141503" result="shape"/>
</filter>
</defs>
</svg>
