<svg width="81" height="74" viewBox="0 0 81 74" fill="none" xmlns="http://www.w3.org/2000/svg">
<g filter="url(#filter0_d_10423_141483)">
<rect x="13" y="7.91211" width="55" height="49" rx="9.73913" fill="white" shape-rendering="crispEdges"/>
<path d="M38.2077 26.3701C38.2077 26.4401 38.211 26.5101 38.2168 26.5784H36.541C36.4858 26.5784 36.4328 26.6004 36.3937 26.6395C36.3546 26.6785 36.3327 26.7315 36.3327 26.7868V36.3701C36.3327 36.4851 36.426 36.5784 36.541 36.5784H44.4577C44.5129 36.5784 44.5659 36.5565 44.605 36.5174C44.6441 36.4783 44.666 36.4254 44.666 36.3701V26.7868C44.666 26.7315 44.6441 26.6785 44.605 26.6395C44.5659 26.6004 44.5129 26.5784 44.4577 26.5784H42.7818C42.8095 26.2702 42.7744 25.9597 42.6788 25.6654C42.5832 25.3711 42.4289 25.0993 42.2254 24.8662C42.0218 24.6332 41.7732 24.4437 41.4945 24.3094C41.2158 24.175 40.9127 24.0985 40.6036 24.0844C40.2945 24.0703 39.9858 24.119 39.696 24.2275C39.4062 24.3359 39.1414 24.502 38.9175 24.7155C38.6936 24.9291 38.5153 25.1858 38.3933 25.4702C38.2713 25.7546 38.2082 26.0607 38.2077 26.3701ZM41.9577 26.3701C41.9577 26.4409 41.9527 26.5101 41.9427 26.5784H39.056C39.0274 26.3802 39.0399 26.1781 39.0927 25.9849C39.1456 25.7916 39.2377 25.6114 39.3634 25.4553C39.489 25.2993 39.6454 25.1708 39.8229 25.0779C40.0004 24.9849 40.1951 24.9296 40.3949 24.9152C40.5947 24.9009 40.7954 24.9278 40.9843 24.9945C41.1732 25.0611 41.3464 25.1659 41.493 25.3024C41.6397 25.4389 41.7566 25.6042 41.8365 25.7879C41.9165 25.9716 41.9577 26.1698 41.9577 26.3701ZM32.9993 27.4118C32.9993 27.1908 33.0871 26.9788 33.2434 26.8225C33.3997 26.6662 33.6117 26.5784 33.8327 26.5784H35.291C35.3463 26.5784 35.3993 26.6004 35.4383 26.6395C35.4774 26.6785 35.4993 26.7315 35.4993 26.7868V36.3701C35.4993 36.4254 35.4774 36.4783 35.4383 36.5174C35.3993 36.5565 35.3463 36.5784 35.291 36.5784H33.8327C33.6117 36.5784 33.3997 36.4906 33.2434 36.3344C33.0871 36.1781 32.9993 35.9661 32.9993 35.7451V27.4118ZM45.7077 36.5784C45.6524 36.5784 45.5994 36.5565 45.5604 36.5174C45.5213 36.4783 45.4993 36.4254 45.4993 36.3701V26.7868C45.4993 26.7315 45.5213 26.6785 45.5604 26.6395C45.5994 26.6004 45.6524 26.5784 45.7077 26.5784H47.166C47.387 26.5784 47.599 26.6662 47.7553 26.8225C47.9116 26.9788 47.9993 27.1908 47.9993 27.4118V35.7451C47.9993 35.9661 47.9116 36.1781 47.7553 36.3344C47.599 36.4906 47.387 36.5784 47.166 36.5784H45.7077ZM48.416 38.2451C48.5265 38.2451 48.6325 38.289 48.7106 38.3671C48.7888 38.4453 48.8327 38.5513 48.8327 38.6618C48.8327 38.7723 48.7888 38.8783 48.7106 38.9564C48.6325 39.0345 48.5265 39.0784 48.416 39.0784H46.3327C46.3327 39.2994 46.2449 39.5114 46.0886 39.6677C45.9323 39.824 45.7204 39.9118 45.4993 39.9118C45.2783 39.9118 45.0664 39.824 44.9101 39.6677C44.7538 39.5114 44.666 39.2994 44.666 39.0784H42.9993C42.9993 39.2994 42.9116 39.5114 42.7553 39.6677C42.599 39.824 42.387 39.9118 42.166 39.9118C41.945 39.9118 41.733 39.824 41.5768 39.6677C41.4205 39.5114 41.3327 39.2994 41.3327 39.0784H39.666C39.666 39.2994 39.5782 39.5114 39.4219 39.6677C39.2657 39.824 39.0537 39.9118 38.8327 39.9118C38.6117 39.9118 38.3997 39.824 38.2434 39.6677C38.0871 39.5114 37.9993 39.2994 37.9993 39.0784H36.3327C36.3327 39.2994 36.2449 39.5114 36.0886 39.6677C35.9323 39.824 35.7204 39.9118 35.4993 39.9118C35.2783 39.9118 35.0664 39.824 34.9101 39.6677C34.7538 39.5114 34.666 39.2994 34.666 39.0784H32.5827C32.4722 39.0784 32.3662 39.0345 32.2881 38.9564C32.2099 38.8783 32.166 38.7723 32.166 38.6618C32.166 38.5513 32.2099 38.4453 32.2881 38.3671C32.3662 38.289 32.4722 38.2451 32.5827 38.2451H48.416Z" fill="#3D0072"/>
<path d="M32.1667 19.9121C31.6195 19.9121 31.0777 20.0199 30.5722 20.2293C30.0666 20.4387 29.6073 20.7456 29.2204 21.1325C28.439 21.9139 28 22.9737 28 24.0788V40.7454C28 41.8505 28.439 42.9103 29.2204 43.6917C29.6073 44.0786 30.0666 44.3855 30.5722 44.5949C31.0777 44.8043 31.6195 44.9121 32.1667 44.9121H48.8333C49.9384 44.9121 50.9982 44.4731 51.7796 43.6917C52.561 42.9103 53 41.8505 53 40.7454V24.0788C53 23.5316 52.8922 22.9898 52.6828 22.4843C52.4734 21.9787 52.1665 21.5194 51.7796 21.1325C51.3927 20.7456 50.9334 20.4387 50.4278 20.2293C49.9223 20.0199 49.3805 19.9121 48.8333 19.9121H32.1667ZM29.6667 24.0788C29.6667 23.4157 29.9301 22.7799 30.3989 22.311C30.8677 21.8422 31.5036 21.5788 32.1667 21.5788H48.8333C49.4964 21.5788 50.1323 21.8422 50.6011 22.311C51.0699 22.7799 51.3333 23.4157 51.3333 24.0788V40.7454C51.3333 41.4085 51.0699 42.0444 50.6011 42.5132C50.1323 42.982 49.4964 43.2454 48.8333 43.2454H32.1667C31.5036 43.2454 30.8677 42.982 30.3989 42.5132C29.9301 42.0444 29.6667 41.4085 29.6667 40.7454V24.0788Z" fill="#3D0072"/>
</g>
<defs>
<filter id="filter0_d_10423_141483" x="0.826086" y="0.607761" width="79.3478" height="73.3478" filterUnits="userSpaceOnUse" color-interpolation-filters="sRGB">
<feFlood flood-opacity="0" result="BackgroundImageFix"/>
<feColorMatrix in="SourceAlpha" type="matrix" values="0 0 0 0 0 0 0 0 0 0 0 0 0 0 0 0 0 0 127 0" result="hardAlpha"/>
<feOffset dy="4.86957"/>
<feGaussianBlur stdDeviation="6.08696"/>
<feComposite in2="hardAlpha" operator="out"/>
<feColorMatrix type="matrix" values="0 0 0 0 0.533333 0 0 0 0 0.027451 0 0 0 0 0.968627 0 0 0 0.07 0"/>
<feBlend mode="normal" in2="BackgroundImageFix" result="effect1_dropShadow_10423_141483"/>
<feBlend mode="normal" in="SourceGraphic" in2="effect1_dropShadow_10423_141483" result="shape"/>
</filter>
</defs>
</svg>
